<?xml version="1.0" encoding="UTF-8" standalone="no"?><svg xmlns="http://www.w3.org/2000/svg" xmlns:xlink="http://www.w3.org/1999/xlink" clip-rule="evenodd" stroke-miterlimit="10" viewBox="0 0 1024 768"><desc>SVG generated by Keynote</desc><defs></defs><g transform="matrix(1.00, 0.00, -0.00, -1.00, 0.0, 768.0)"><g><clipPath id="clip0x7fa6bbd9f000"><path d="M 0.0 768.0 L 1024.0 768.0 L 1024.0 0.0 L 0.0 0.0 Z M 0.0 768.0 "></path></clipPath><g clip-path="url(#clip0x7fa6bbd9f000)"><image xlink:href="../../FD143D00-F4AD-4582-B813-3101DA54A4D8/assets/0FBE948F071B0EC909542DC7FB8A00E1.jpeg" width="2048.00" height="1536.00" transform="matrix(0.50, 0.00, -0.00, -0.50, 0.0, 768.0)"></image></g></g><image xlink:href="../../A94E6230-41B5-411F-BD3C-C1D4E0726919/assets/30CABC22AE17AA8F05FAC81939CFEFCA.png" width="95.00" height="61.00" transform="matrix(1.00, 0.00, -0.00, -1.00, 44.0, 744.0)"></image><text xml:space="preserve" font-family="HelveticaNeue-Light,Helvetica Neue" font-size="72.0" fill="#FEFFFE" transform="matrix(1.00, 0.00, -0.00, -1.00, 44.0, 691.4)">U</text><text xml:space="preserve" font-family="HelveticaNeue-Light,Helvetica Neue" font-size="72.0" fill="#FEFFFE" transform="matrix(1.00, 0.00, -0.00, -1.00, 93.3, 691.4)">E</text><image xlink:href="61387AD62D8B630D6594838F219A3BC7.png" width="1158.00" height="388.00" transform="matrix(0.88, 0.00, -0.00, -0.89, 0.0, 679.0)"></image><image xlink:href="EFD05D27DD0683D59BE9BE427CAC574C.png" width="1159.00" height="391.00" transform="matrix(0.88, 0.00, -0.00, -0.88, 0.0, 345.0)"></image></g></svg>